<?xml version="1.0" standalone="no"?>
<!DOCTYPE svg PUBLIC "-//W3C//DTD SVG 20010904//EN"
 "http://www.w3.org/TR/2001/REC-SVG-20010904/DTD/svg10.dtd">
<svg version="1.0" xmlns="http://www.w3.org/2000/svg"
 width="225.000000pt" height="225.000000pt" viewBox="0 0 225.000000 225.000000"
 preserveAspectRatio="xMidYMid meet">
<metadata>
Created by potrace 1.14, written by Peter Selinger 2001-2017
</metadata>
<g transform="translate(0.000000,225.000000) scale(0.100000,-0.100000)"
fill="#000000" stroke="none">
<path d="M0 1125 l0 -1125 1125 0 1125 0 0 1125 0 1125 -1125 0 -1125 0 0
-1125z m966 925 c69 -26 123 -111 124 -196 0 -38 -74 -554 -103 -714 -1 -8
-69 136 -151 320 -169 380 -174 398 -131 485 50 102 154 144 261 105z m489
-14 c21 -11 53 -40 70 -64 26 -38 30 -52 30 -110 0 -64 -5 -79 -145 -394 -80
-180 -148 -328 -151 -328 -3 0 -26 138 -52 306 -52 338 -52 337 12 379 35 23
25 35 -31 35 -43 0 -48 14 -24 71 51 122 176 167 291 105z m-867 -275 c20 -11
49 -32 64 -48 16 -16 88 -169 177 -374 83 -191 151 -349 151 -352 0 -4 -142
93 -316 215 -270 189 -319 228 -342 267 -61 105 -16 249 93 297 45 20 129 17
173 -5z m1230 4 c80 -34 126 -107 126 -197 -1 -105 -17 -121 -369 -368 -170
-120 -311 -217 -313 -215 -3 3 268 626 298 685 20 40 67 81 110 99 38 15 106
13 148 -4z m-1387 -473 c20 -9 157 -102 303 -207 l267 -190 -343 -3 c-389 -3
-402 -1 -462 70 -68 79 -69 193 -4 273 58 70 161 94 239 57z m1545 -1 c85 -39
139 -149 115 -236 -16 -59 -45 -101 -92 -132 l-43 -28 -360 -3 c-353 -3 -359
-2 -335 16 81 62 519 369 548 384 45 23 115 23 167 -1z m-29 -561 c45 -20 83
-69 83 -106 0 -25 -17 -34 -65 -34 -27 0 -37 6 -47 27 -25 51 -128 54 -128 4
0 -21 8 -25 90 -40 78 -14 103 -25 133 -61 45 -53 32 -145 -27 -183 -42 -28
-112 -39 -175 -27 -82 15 -134 60 -147 128 l-6 32 56 0 c32 0 56 -4 56 -10 0
-6 11 -22 25 -35 17 -18 35 -25 64 -25 66 0 93 52 33 64 -15 3 -52 10 -82 16
-79 15 -116 41 -131 90 -30 101 42 180 166 180 38 0 76 -8 102 -20z m-1514
-102 l77 -112 0 112 0 112 55 0 55 0 0 -215 0 -215 -44 0 -45 0 -88 121 -88
121 -3 -121 -3 -121 -54 0 -55 0 0 215 0 215 58 0 57 -1 78 -111z m585 65 l-3
-48 -107 -3 -108 -3 0 -29 0 -30 85 0 85 0 0 -50 0 -50 -85 0 -85 0 0 -35 0
-35 116 0 115 0 -3 -47 -3 -48 -167 -3 -168 -2 0 215 0 215 166 0 165 0 -3
-47z m149 20 c3 -16 18 -75 33 -133 l26 -105 32 121 c18 66 32 126 32 132 0 8
20 12 58 12 l57 0 34 -132 35 -133 26 105 c15 58 30 117 33 133 7 25 11 27 62
27 37 0 55 -4 55 -12 0 -7 -24 -103 -53 -213 l-53 -200 -64 0 -63 0 -33 129
c-19 71 -35 130 -37 132 -1 2 -18 -58 -36 -132 l-34 -134 -64 0 c-34 0 -63 3
-63 8 0 4 -25 100 -54 215 l-54 207 59 0 c56 0 59 -1 66 -27z"/>
</g>
</svg>
